<svg xmlns="http://www.w3.org/2000/svg" width="1024" height="1024" viewBox="0 0 2000 2000" preserveAspectRatio="none"><defs><linearGradient id="metal-gold-g" x1="0" y1="0" x2="0" y2="1"><stop offset="0" stop-color="#bc9855"/><stop offset=".3" stop-color="#cba662"/><stop offset=".55" stop-color="#c8a25a"/><stop offset=".8" stop-color="#caa55f"/><stop offset="1" stop-color="#bc9855"/></linearGradient><g id="metal-gold-t"><path d="M0 55.4H2000" stroke="#ffffff" stroke-width="1.1" stroke-opacity="0.15"/><path d="M0 548.7H2000" stroke="#000000" stroke-width="2.2" stroke-opacity="0.07"/><path d="M0 1214.2H2000" stroke="#ffffff" stroke-width="0.9" stroke-opacity="0.03"/><path d="M0 1457.1H2000" stroke="#ffffff" stroke-width="2.9" stroke-opacity="0.05"/><path d="M0 1349.2H2000" stroke="#000000" stroke-width="1.7" stroke-opacity="0.07"/><path d="M0 1297.7H2000" stroke="#000000" stroke-width="0.8" stroke-opacity="0.07"/><path d="M0 232.7H2000" stroke="#000000" stroke-width="2.4" stroke-opacity="0.1"/><path d="M0 1766.4H2000" stroke="#000000" stroke-width="3.2" stroke-opacity="0.05"/><path d="M0 638.3H2000" stroke="#000000" stroke-width="1.4" stroke-opacity="0.06"/><path d="M0 1826.3H2000" stroke="#000000" stroke-width="3.5" stroke-opacity="0.07"/><path d="M0 115.6H2000" stroke="#ffffff" stroke-width="3.4" stroke-opacity="0.12"/><path d="M0 643.4H2000" stroke="#ffffff" stroke-width="0.9" stroke-opacity="0.11"/><path d="M0 1520.8H2000" stroke="#ffffff" stroke-width="3.4" stroke-opacity="0.14"/><path d="M0 93.1H2000" stroke="#000000" stroke-width="1.2" stroke-opacity="0.09"/><path d="M0 1655.1H2000" stroke="#ffffff" stroke-width="1.4" stroke-opacity="0.15"/><path d="M0 118.5H2000" stroke="#000000" stroke-width="3" stroke-opacity="0.09"/><path d="M0 1820.9H2000" stroke="#000000" stroke-width="1.9" stroke-opacity="0.04"/><path d="M0 1640.7H2000" stroke="#ffffff" stroke-width="3" stroke-opacity="0.05"/><path d="M0 1999.8H2000" stroke="#000000" stroke-width="2.4" stroke-opacity="0.1"/><path d="M0 839.8H2000" stroke="#ffffff" stroke-width="2.2" stroke-opacity="0.05"/><path d="M0 1598H2000" stroke="#ffffff" stroke-width="2.8" stroke-opacity="0.05"/><path d="M0 623.5H2000" stroke="#000000" stroke-width="3.3" stroke-opacity="0.04"/><path d="M0 120.5H2000" stroke="#ffffff" stroke-width="0.8" stroke-opacity="0.06"/><path d="M0 1614.3H2000" stroke="#000000" stroke-width="2.5" stroke-opacity="0.06"/><path d="M0 624.9H2000" stroke="#ffffff" stroke-width="2.8" stroke-opacity="0.08"/><path d="M0 756.7H2000" stroke="#ffffff" stroke-width="2.9" stroke-opacity="0.11"/><path d="M0 1483.6H2000" stroke="#000000" stroke-width="3.1" stroke-opacity="0.08"/><path d="M0 1085.2H2000" stroke="#000000" stroke-width="1.6" stroke-opacity="0.06"/><path d="M0 1825.6H2000" stroke="#000000" stroke-width="2.3" stroke-opacity="0.1"/><path d="M0 1899.4H2000" stroke="#000000" stroke-width="2.8" stroke-opacity="0.07"/><path d="M0 1452H2000" stroke="#ffffff" stroke-width="0.7" stroke-opacity="0.09"/><path d="M0 226.8H2000" stroke="#ffffff" stroke-width="2.2" stroke-opacity="0.16"/><path d="M0 1857.4H2000" stroke="#ffffff" stroke-width="0.6" stroke-opacity="0.05"/><path d="M0 410.8H2000" stroke="#ffffff" stroke-width="2.4" stroke-opacity="0.13"/><path d="M0 1645.1H2000" stroke="#000000" stroke-width="2.7" stroke-opacity="0.06"/><path d="M0 998.5H2000" stroke="#000000" stroke-width="1.3" stroke-opacity="0.09"/><path d="M0 1237.2H2000" stroke="#000000" stroke-width="0.9" stroke-opacity="0.09"/><path d="M0 1902.8H2000" stroke="#000000" stroke-width="1.7" stroke-opacity="0.09"/><path d="M0 439.4H2000" stroke="#ffffff" stroke-width="2.3" stroke-opacity="0.06"/><path d="M0 483.2H2000" stroke="#ffffff" stroke-width="3.3" stroke-opacity="0.09"/><path d="M0 1499.8H2000" stroke="#000000" stroke-width="2" stroke-opacity="0.03"/><path d="M0 873.6H2000" stroke="#ffffff" stroke-width="1.3" stroke-opacity="0.05"/><path d="M0 1047.2H2000" stroke="#ffffff" stroke-width="2.5" stroke-opacity="0.09"/><path d="M0 1728.2H2000" stroke="#000000" stroke-width="2.9" stroke-opacity="0.05"/><path d="M0 421.6H2000" stroke="#000000" stroke-width="2.2" stroke-opacity="0.04"/><path d="M0 1390H2000" stroke="#ffffff" stroke-width="1.9" stroke-opacity="0.1"/><path d="M0 538.8H2000" stroke="#000000" stroke-width="2.5" stroke-opacity="0.04"/><path d="M0 1936.6H2000" stroke="#000000" stroke-width="3.1" stroke-opacity="0.03"/><path d="M0 1924.3H2000" stroke="#000000" stroke-width="0.7" stroke-opacity="0.04"/><path d="M0 422.3H2000" stroke="#ffffff" stroke-width="2" stroke-opacity="0.13"/><path d="M0 1459H2000" stroke="#000000" stroke-width="3.3" stroke-opacity="0.06"/><path d="M0 95.5H2000" stroke="#000000" stroke-width="2.8" stroke-opacity="0.08"/><path d="M0 1948.5H2000" stroke="#000000" stroke-width="1.1" stroke-opacity="0.09"/><path d="M0 1998.4H2000" stroke="#000000" stroke-width="1.7" stroke-opacity="0.06"/><path d="M0 372.7H2000" stroke="#ffffff" stroke-width="2.3" stroke-opacity="0.12"/><path d="M0 208.2H2000" stroke="#ffffff" stroke-width="0.7" stroke-opacity="0.08"/><path d="M0 1336.8H2000" stroke="#ffffff" stroke-width="2.8" stroke-opacity="0.1"/><path d="M0 624.6H2000" stroke="#ffffff" stroke-width="1.4" stroke-opacity="0.06"/><path d="M0 1371.4H2000" stroke="#ffffff" stroke-width="2.1" stroke-opacity="0.04"/><path d="M0 262.7H2000" stroke="#000000" stroke-width="1.3" stroke-opacity="0.05"/><path d="M0 1419.3H2000" stroke="#000000" stroke-width="2.1" stroke-opacity="0.08"/><path d="M0 501.9H2000" stroke="#ffffff" stroke-width="0.8" stroke-opacity="0.1"/><path d="M0 884H2000" stroke="#ffffff" stroke-width="3.3" stroke-opacity="0.11"/><path d="M0 613.2H2000" stroke="#000000" stroke-width="2.5" stroke-opacity="0.04"/><path d="M0 1539.1H2000" stroke="#000000" stroke-width="2.6" stroke-opacity="0.07"/><path d="M0 1600.5H2000" stroke="#000000" stroke-width="1.1" stroke-opacity="0.09"/><path d="M0 1517.3H2000" stroke="#000000" stroke-width="2.5" stroke-opacity="0.07"/><path d="M0 1157.9H2000" stroke="#ffffff" stroke-width="3.2" stroke-opacity="0.11"/><path d="M0 364.1H2000" stroke="#000000" stroke-width="3.2" stroke-opacity="0.04"/><path d="M0 1700.1H2000" stroke="#000000" stroke-width="3.4" stroke-opacity="0.06"/><path d="M0 1274.9H2000" stroke="#ffffff" stroke-width="2.4" stroke-opacity="0.14"/><path d="M0 1576.2H2000" stroke="#ffffff" stroke-width="2.2" stroke-opacity="0.14"/><path d="M0 225.4H2000" stroke="#ffffff" stroke-width="2.1" stroke-opacity="0.06"/><path d="M0 1805.5H2000" stroke="#000000" stroke-width="2.9" stroke-opacity="0.04"/><path d="M0 1348.6H2000" stroke="#ffffff" stroke-width="2.5" stroke-opacity="0.09"/><path d="M0 42.4H2000" stroke="#000000" stroke-width="3.2" stroke-opacity="0.03"/><path d="M0 857.6H2000" stroke="#000000" stroke-width="1.1" stroke-opacity="0.06"/><path d="M0 1529.3H2000" stroke="#ffffff" stroke-width="1.2" stroke-opacity="0.03"/><path d="M0 1037.3H2000" stroke="#ffffff" stroke-width="1.1" stroke-opacity="0.13"/><path d="M0 1048.2H2000" stroke="#ffffff" stroke-width="2.9" stroke-opacity="0.1"/><path d="M0 179.1H2000" stroke="#ffffff" stroke-width="3.3" stroke-opacity="0.14"/><path d="M0 274.3H2000" stroke="#ffffff" stroke-width="1.8" stroke-opacity="0.08"/><path d="M0 877.9H2000" stroke="#000000" stroke-width="3" stroke-opacity="0.04"/><path d="M0 1119.3H2000" stroke="#ffffff" stroke-width="1.1" stroke-opacity="0.08"/><path d="M0 1135.6H2000" stroke="#000000" stroke-width="2.3" stroke-opacity="0.05"/><path d="M0 1567.1H2000" stroke="#ffffff" stroke-width="1.9" stroke-opacity="0.12"/><path d="M0 1987.5H2000" stroke="#ffffff" stroke-width="3.2" stroke-opacity="0.1"/><path d="M0 1233.6H2000" stroke="#ffffff" stroke-width="2.6" stroke-opacity="0.07"/><path d="M0 1338.8H2000" stroke="#ffffff" stroke-width="2.8" stroke-opacity="0.06"/><path d="M0 1380.1H2000" stroke="#ffffff" stroke-width="2.1" stroke-opacity="0.04"/><path d="M0 254.5H2000" stroke="#000000" stroke-width="2.6" stroke-opacity="0.06"/><path d="M0 1410.7H2000" stroke="#ffffff" stroke-width="1.3" stroke-opacity="0.04"/><path d="M0 295.7H2000" stroke="#000000" stroke-width="1.8" stroke-opacity="0.08"/><path d="M0 896.6H2000" stroke="#ffffff" stroke-width="0.7" stroke-opacity="0.06"/><path d="M0 1238.5H2000" stroke="#000000" stroke-width="2.5" stroke-opacity="0.09"/><path d="M0 320.9H2000" stroke="#ffffff" stroke-width="1.3" stroke-opacity="0.09"/><path d="M0 1500.9H2000" stroke="#000000" stroke-width="0.6" stroke-opacity="0.07"/><path d="M0 1135.7H2000" stroke="#000000" stroke-width="1.8" stroke-opacity="0.06"/><path d="M0 140.8H2000" stroke="#000000" stroke-width="1.8" stroke-opacity="0.03"/><path d="M0 1091.9H2000" stroke="#000000" stroke-width="3.2" stroke-opacity="0.04"/><path d="M0 974.2H2000" stroke="#000000" stroke-width="3.5" stroke-opacity="0.06"/><path d="M0 1774.3H2000" stroke="#ffffff" stroke-width="1.4" stroke-opacity="0.04"/><path d="M0 1814.8H2000" stroke="#000000" stroke-width="3" stroke-opacity="0.04"/><path d="M0 192.6H2000" stroke="#000000" stroke-width="1.3" stroke-opacity="0.08"/><path d="M0 1286.5H2000" stroke="#000000" stroke-width="1.6" stroke-opacity="0.05"/><path d="M0 982.9H2000" stroke="#000000" stroke-width="2.8" stroke-opacity="0.09"/><path d="M0 942.3H2000" stroke="#ffffff" stroke-width="1.8" stroke-opacity="0.13"/><path d="M0 425.3H2000" stroke="#000000" stroke-width="2.9" stroke-opacity="0.09"/><path d="M0 539.5H2000" stroke="#ffffff" stroke-width="2.1" stroke-opacity="0.08"/><path d="M0 501.9H2000" stroke="#ffffff" stroke-width="1.8" stroke-opacity="0.05"/><path d="M0 1583.2H2000" stroke="#000000" stroke-width="1.8" stroke-opacity="0.04"/><path d="M0 1978.3H2000" stroke="#ffffff" stroke-width="2.1" stroke-opacity="0.13"/><path d="M0 1567.2H2000" stroke="#ffffff" stroke-width="0.8" stroke-opacity="0.15"/><path d="M0 1046.2H2000" stroke="#ffffff" stroke-width="1.3" stroke-opacity="0.07"/><path d="M0 1858.7H2000" stroke="#ffffff" stroke-width="2.4" stroke-opacity="0.15"/><path d="M0 874.5H2000" stroke="#000000" stroke-width="1.2" stroke-opacity="0.08"/><path d="M0 1985.1H2000" stroke="#000000" stroke-width="2.5" stroke-opacity="0.03"/><path d="M0 252.2H2000" stroke="#000000" stroke-width="1.4" stroke-opacity="0.08"/><path d="M0 1699.6H2000" stroke="#000000" stroke-width="1.8" stroke-opacity="0.07"/><path d="M0 462.3H2000" stroke="#ffffff" stroke-width="2.2" stroke-opacity="0.06"/><path d="M0 239.6H2000" stroke="#ffffff" stroke-width="0.9" stroke-opacity="0.12"/><path d="M0 73.1H2000" stroke="#ffffff" stroke-width="3.2" stroke-opacity="0.1"/><path d="M0 349.6H2000" stroke="#ffffff" stroke-width="2.5" stroke-opacity="0.12"/><path d="M0 759.3H2000" stroke="#000000" stroke-width="3" stroke-opacity="0.06"/><path d="M0 1676H2000" stroke="#ffffff" stroke-width="1.7" stroke-opacity="0.03"/><path d="M0 1463.9H2000" stroke="#ffffff" stroke-width="1.1" stroke-opacity="0.09"/><path d="M0 1777.6H2000" stroke="#000000" stroke-width="2" stroke-opacity="0.08"/><path d="M0 1587.2H2000" stroke="#ffffff" stroke-width="2.1" stroke-opacity="0.1"/><path d="M0 532.2H2000" stroke="#000000" stroke-width="1.6" stroke-opacity="0.07"/><path d="M0 273.3H2000" stroke="#ffffff" stroke-width="2.1" stroke-opacity="0.14"/><path d="M0 1806.9H2000" stroke="#000000" stroke-width="2.8" stroke-opacity="0.09"/><path d="M0 1508.7H2000" stroke="#ffffff" stroke-width="0.9" stroke-opacity="0.15"/><path d="M0 1594.2H2000" stroke="#ffffff" stroke-width="3" stroke-opacity="0.03"/><path d="M0 1328H2000" stroke="#ffffff" stroke-width="1.9" stroke-opacity="0.13"/><path d="M0 1291.5H2000" stroke="#ffffff" stroke-width="3.4" stroke-opacity="0.1"/><path d="M0 46.8H2000" stroke="#ffffff" stroke-width="1.6" stroke-opacity="0.13"/><path d="M0 244.2H2000" stroke="#ffffff" stroke-width="1.9" stroke-opacity="0.14"/><path d="M0 331H2000" stroke="#000000" stroke-width="1.7" stroke-opacity="0.04"/><path d="M0 68.3H2000" stroke="#000000" stroke-width="3.3" stroke-opacity="0.09"/><path d="M0 309.4H2000" stroke="#000000" stroke-width="1.3" stroke-opacity="0.1"/><path d="M0 148.6H2000" stroke="#000000" stroke-width="3" stroke-opacity="0.05"/><path d="M0 239.8H2000" stroke="#ffffff" stroke-width="2.3" stroke-opacity="0.16"/><path d="M0 379.4H2000" stroke="#000000" stroke-width="1.8" stroke-opacity="0.09"/><path d="M0 1486.3H2000" stroke="#ffffff" stroke-width="1.8" stroke-opacity="0.09"/><path d="M0 1124.5H2000" stroke="#ffffff" stroke-width="1" stroke-opacity="0.03"/><path d="M0 1600.2H2000" stroke="#ffffff" stroke-width="2.5" stroke-opacity="0.05"/><path d="M0 103.4H2000" stroke="#000000" stroke-width="1" stroke-opacity="0.06"/><path d="M0 1482.9H2000" stroke="#ffffff" stroke-width="3.5" stroke-opacity="0.14"/><path d="M0 1186.3H2000" stroke="#ffffff" stroke-width="1.9" stroke-opacity="0.11"/><path d="M0 1291.8H2000" stroke="#ffffff" stroke-width="1.7" stroke-opacity="0.15"/><path d="M0 1629.2H2000" stroke="#000000" stroke-width="0.7" stroke-opacity="0.09"/><path d="M0 2.9H2000" stroke="#000000" stroke-width="2.8" stroke-opacity="0.09"/><path d="M0 1098.5H2000" stroke="#000000" stroke-width="1" stroke-opacity="0.07"/><path d="M0 1441.6H2000" stroke="#000000" stroke-width="2.2" stroke-opacity="0.1"/><path d="M0 1113.4H2000" stroke="#000000" stroke-width="0.9" stroke-opacity="0.03"/><path d="M0 189.4H2000" stroke="#ffffff" stroke-width="2.5" stroke-opacity="0.07"/><path d="M0 277.4H2000" stroke="#ffffff" stroke-width="1.9" stroke-opacity="0.15"/><path d="M0 1505.4H2000" stroke="#ffffff" stroke-width="3" stroke-opacity="0.08"/><path d="M0 990H2000" stroke="#ffffff" stroke-width="1.1" stroke-opacity="0.1"/><path d="M0 1356.2H2000" stroke="#ffffff" stroke-width="2.3" stroke-opacity="0.15"/><path d="M0 59.6H2000" stroke="#000000" stroke-width="1.5" stroke-opacity="0.04"/><path d="M0 1711.5H2000" stroke="#000000" stroke-width="2" stroke-opacity="0.05"/><path d="M0 1234.6H2000" stroke="#ffffff" stroke-width="1.9" stroke-opacity="0.1"/><path d="M0 665.1H2000" stroke="#000000" stroke-width="2.8" stroke-opacity="0.09"/><path d="M0 201.7H2000" stroke="#000000" stroke-width="2.8" stroke-opacity="0.03"/><path d="M0 783.7H2000" stroke="#000000" stroke-width="2" stroke-opacity="0.03"/><path d="M0 695.9H2000" stroke="#ffffff" stroke-width="1.7" stroke-opacity="0.07"/><path d="M0 184.2H2000" stroke="#ffffff" stroke-width="1.4" stroke-opacity="0.07"/><path d="M0 66.5H2000" stroke="#ffffff" stroke-width="3.4" stroke-opacity="0.13"/><path d="M0 156.6H2000" stroke="#000000" stroke-width="1.5" stroke-opacity="0.06"/><path d="M0 1567.8H2000" stroke="#000000" stroke-width="3.3" stroke-opacity="0.04"/><path d="M0 1091.2H2000" stroke="#000000" stroke-width="3.3" stroke-opacity="0.05"/><path d="M0 1545.8H2000" stroke="#ffffff" stroke-width="3.4" stroke-opacity="0.15"/><path d="M0 378.2H2000" stroke="#000000" stroke-width="3" stroke-opacity="0.03"/><path d="M0 1896.6H2000" stroke="#000000" stroke-width="2.4" stroke-opacity="0.07"/><path d="M0 657.7H2000" stroke="#000000" stroke-width="3.3" stroke-opacity="0.08"/><path d="M0 900.6H2000" stroke="#ffffff" stroke-width="1.7" stroke-opacity="0.12"/><path d="M0 1057.6H2000" stroke="#ffffff" stroke-width="2.4" stroke-opacity="0.15"/><path d="M0 437H2000" stroke="#000000" stroke-width="2.7" stroke-opacity="0.07"/><path d="M0 916.3H2000" stroke="#000000" stroke-width="0.8" stroke-opacity="0.03"/><path d="M0 1655.9H2000" stroke="#000000" stroke-width="2.3" stroke-opacity="0.1"/><path d="M0 767.8H2000" stroke="#000000" stroke-width="2.6" stroke-opacity="0.08"/><path d="M0 498.6H2000" stroke="#ffffff" stroke-width="3.4" stroke-opacity="0.14"/><path d="M0 1862.4H2000" stroke="#000000" stroke-width="1.3" stroke-opacity="0.03"/><path d="M0 1339.1H2000" stroke="#000000" stroke-width="2.2" stroke-opacity="0.09"/><path d="M0 570.3H2000" stroke="#000000" stroke-width="1.3" stroke-opacity="0.04"/><path d="M0 1045.8H2000" stroke="#000000" stroke-width="0.9" stroke-opacity="0.06"/><path d="M0 809.6H2000" stroke="#ffffff" stroke-width="2.3" stroke-opacity="0.14"/><path d="M0 1998.4H2000" stroke="#000000" stroke-width="0.6" stroke-opacity="0.07"/><path d="M0 632.3H2000" stroke="#000000" stroke-width="0.9" stroke-opacity="0.08"/><path d="M0 1004.7H2000" stroke="#000000" stroke-width="3.1" stroke-opacity="0.07"/><path d="M0 1048.8H2000" stroke="#000000" stroke-width="3.4" stroke-opacity="0.1"/><path d="M0 927.1H2000" stroke="#ffffff" stroke-width="1.4" stroke-opacity="0.12"/><path d="M0 1025.8H2000" stroke="#000000" stroke-width="2.5" stroke-opacity="0.1"/><path d="M0 1172.9H2000" stroke="#ffffff" stroke-width="3" stroke-opacity="0.05"/><path d="M0 1194.5H2000" stroke="#ffffff" stroke-width="2.2" stroke-opacity="0.14"/><path d="M0 864.8H2000" stroke="#ffffff" stroke-width="2.7" stroke-opacity="0.15"/><path d="M0 1365.3H2000" stroke="#000000" stroke-width="3" stroke-opacity="0.09"/><path d="M0 83.1H2000" stroke="#ffffff" stroke-width="1.5" stroke-opacity="0.13"/><path d="M0 87.7H2000" stroke="#ffffff" stroke-width="0.7" stroke-opacity="0.12"/><path d="M0 1698.4H2000" stroke="#ffffff" stroke-width="1" stroke-opacity="0.1"/><path d="M0 1762.7H2000" stroke="#000000" stroke-width="3.5" stroke-opacity="0.07"/><path d="M0 1352.3H2000" stroke="#000000" stroke-width="2.1" stroke-opacity="0.04"/><path d="M0 136.4H2000" stroke="#000000" stroke-width="3.3" stroke-opacity="0.03"/><path d="M0 644.4H2000" stroke="#ffffff" stroke-width="1.8" stroke-opacity="0.12"/><path d="M0 24.4H2000" stroke="#000000" stroke-width="0.9" stroke-opacity="0.06"/><path d="M0 1582.1H2000" stroke="#ffffff" stroke-width="0.9" stroke-opacity="0.06"/><path d="M0 1943.5H2000" stroke="#000000" stroke-width="2.8" stroke-opacity="0.05"/><path d="M0 1133.7H2000" stroke="#ffffff" stroke-width="2.8" stroke-opacity="0.15"/><path d="M0 761.5H2000" stroke="#ffffff" stroke-width="2.4" stroke-opacity="0.09"/><path d="M0 340.7H2000" stroke="#ffffff" stroke-width="2" stroke-opacity="0.13"/><path d="M0 946.1H2000" stroke="#000000" stroke-width="1.4" stroke-opacity="0.06"/><path d="M0 32.9H2000" stroke="#000000" stroke-width="2.3" stroke-opacity="0.1"/><path d="M0 1437.1H2000" stroke="#ffffff" stroke-width="2.3" stroke-opacity="0.1"/><path d="M0 1344H2000" stroke="#000000" stroke-width="2.3" stroke-opacity="0.05"/><path d="M0 1401.9H2000" stroke="#ffffff" stroke-width="0.8" stroke-opacity="0.07"/><path d="M0 1761.5H2000" stroke="#000000" stroke-width="2.9" stroke-opacity="0.07"/><path d="M0 1147H2000" stroke="#ffffff" stroke-width="0.7" stroke-opacity="0.12"/><path d="M0 1549.4H2000" stroke="#ffffff" stroke-width="3.2" stroke-opacity="0.14"/><path d="M0 1057.7H2000" stroke="#ffffff" stroke-width="0.6" stroke-opacity="0.08"/><path d="M0 884.5H2000" stroke="#000000" stroke-width="1.2" stroke-opacity="0.1"/><path d="M0 993.8H2000" stroke="#ffffff" stroke-width="2.3" stroke-opacity="0.12"/><path d="M0 479.2H2000" stroke="#ffffff" stroke-width="1.6" stroke-opacity="0.15"/><path d="M0 296.4H2000" stroke="#000000" stroke-width="2.9" stroke-opacity="0.03"/><path d="M0 1805.1H2000" stroke="#000000" stroke-width="2.7" stroke-opacity="0.06"/><path d="M0 58H2000" stroke="#000000" stroke-width="1.1" stroke-opacity="0.03"/><path d="M0 1291.4H2000" stroke="#000000" stroke-width="2.5" stroke-opacity="0.07"/><path d="M0 614.4H2000" stroke="#ffffff" stroke-width="2.4" stroke-opacity="0.12"/><path d="M0 545.7H2000" stroke="#ffffff" stroke-width="1.8" stroke-opacity="0.12"/><path d="M0 61.4H2000" stroke="#ffffff" stroke-width="2.6" stroke-opacity="0.12"/><path d="M0 260.3H2000" stroke="#000000" stroke-width="2.5" stroke-opacity="0.07"/><path d="M0 373.2H2000" stroke="#000000" stroke-width="2.7" stroke-opacity="0.09"/><path d="M0 1719.5H2000" stroke="#000000" stroke-width="0.9" stroke-opacity="0.07"/><path d="M0 1807.3H2000" stroke="#000000" stroke-width="1.1" stroke-opacity="0.05"/><path d="M0 411.3H2000" stroke="#ffffff" stroke-width="0.8" stroke-opacity="0.03"/><path d="M0 276.1H2000" stroke="#ffffff" stroke-width="2" stroke-opacity="0.1"/><path d="M0 1477.5H2000" stroke="#000000" stroke-width="1.5" stroke-opacity="0.07"/><path d="M0 1631.6H2000" stroke="#000000" stroke-width="2.1" stroke-opacity="0.06"/><path d="M0 84.5H2000" stroke="#ffffff" stroke-width="1.2" stroke-opacity="0.04"/><path d="M0 1617.6H2000" stroke="#ffffff" stroke-width="1.7" stroke-opacity="0.06"/><path d="M0 673.7H2000" stroke="#ffffff" stroke-width="2.7" stroke-opacity="0.15"/><path d="M0 1425.4H2000" stroke="#ffffff" stroke-width="1" stroke-opacity="0.09"/><path d="M0 1796.5H2000" stroke="#000000" stroke-width="2.6" stroke-opacity="0.05"/><path d="M0 645.8H2000" stroke="#000000" stroke-width="3.1" stroke-opacity="0.04"/><path d="M0 921.4H2000" stroke="#ffffff" stroke-width="0.9" stroke-opacity="0.04"/><path d="M0 912.4H2000" stroke="#ffffff" stroke-width="2" stroke-opacity="0.1"/><path d="M0 154.9H2000" stroke="#ffffff" stroke-width="2.4" stroke-opacity="0.1"/><path d="M0 1771.4H2000" stroke="#000000" stroke-width="2" stroke-opacity="0.08"/><path d="M0 1203.2H2000" stroke="#ffffff" stroke-width="1.2" stroke-opacity="0.08"/><path d="M0 874.3H2000" stroke="#ffffff" stroke-width="1.2" stroke-opacity="0.1"/><path d="M0 470.6H2000" stroke="#000000" stroke-width="1.6" stroke-opacity="0.05"/><path d="M0 846H2000" stroke="#ffffff" stroke-width="1.8" stroke-opacity="0.14"/><path d="M0 796.2H2000" stroke="#000000" stroke-width="2.6" stroke-opacity="0.04"/><path d="M0 929.5H2000" stroke="#ffffff" stroke-width="3.3" stroke-opacity="0.08"/><path d="M0 1415.3H2000" stroke="#000000" stroke-width="2.4" stroke-opacity="0.06"/><path d="M0 401.9H2000" stroke="#ffffff" stroke-width="0.8" stroke-opacity="0.04"/><path d="M0 458.3H2000" stroke="#000000" stroke-width="1.7" stroke-opacity="0.09"/><path d="M0 114.7H2000" stroke="#000000" stroke-width="1.7" stroke-opacity="0.04"/><path d="M0 721.4H2000" stroke="#000000" stroke-width="0.6" stroke-opacity="0.05"/><path d="M0 861.2H2000" stroke="#000000" stroke-width="2" stroke-opacity="0.04"/><path d="M0 1678.5H2000" stroke="#000000" stroke-width="2.6" stroke-opacity="0.09"/><path d="M0 279.1H2000" stroke="#ffffff" stroke-width="2.6" stroke-opacity="0.16"/><path d="M0 285.7H2000" stroke="#ffffff" stroke-width="2.9" stroke-opacity="0.09"/><path d="M0 305.1H2000" stroke="#000000" stroke-width="1" stroke-opacity="0.05"/><path d="M0 840.6H2000" stroke="#ffffff" stroke-width="1.8" stroke-opacity="0.03"/><path d="M0 1739.9H2000" stroke="#ffffff" stroke-width="1.1" stroke-opacity="0.1"/><path d="M0 762.6H2000" stroke="#000000" stroke-width="2.4" stroke-opacity="0.06"/><path d="M0 242.5H2000" stroke="#000000" stroke-width="2.9" stroke-opacity="0.06"/><path d="M0 690.7H2000" stroke="#ffffff" stroke-width="0.9" stroke-opacity="0.11"/><path d="M0 599.2H2000" stroke="#000000" stroke-width="3" stroke-opacity="0.07"/><path d="M0 1409H2000" stroke="#ffffff" stroke-width="1" stroke-opacity="0.08"/><path d="M0 686.9H2000" stroke="#ffffff" stroke-width="2.2" stroke-opacity="0.15"/><path d="M0 510H2000" stroke="#000000" stroke-width="1.7" stroke-opacity="0.03"/><path d="M0 894.7H2000" stroke="#000000" stroke-width="1.9" stroke-opacity="0.08"/><path d="M0 1881.8H2000" stroke="#000000" stroke-width="2.4" stroke-opacity="0.05"/><path d="M0 44.6H2000" stroke="#000000" stroke-width="2.2" stroke-opacity="0.06"/><path d="M0 313.6H2000" stroke="#000000" stroke-width="1" stroke-opacity="0.09"/><path d="M0 330.4H2000" stroke="#ffffff" stroke-width="1.2" stroke-opacity="0.1"/><path d="M0 1416.3H2000" stroke="#ffffff" stroke-width="1.5" stroke-opacity="0.16"/><path d="M0 1653.3H2000" stroke="#ffffff" stroke-width="0.8" stroke-opacity="0.12"/><path d="M0 787H2000" stroke="#ffffff" stroke-width="1.9" stroke-opacity="0.13"/><path d="M0 1141.3H2000" stroke="#ffffff" stroke-width="2.6" stroke-opacity="0.11"/><path d="M0 810.2H2000" stroke="#ffffff" stroke-width="2.1" stroke-opacity="0.07"/><path d="M0 1103.2H2000" stroke="#ffffff" stroke-width="2.5" stroke-opacity="0.12"/><path d="M0 295.4H2000" stroke="#ffffff" stroke-width="1" stroke-opacity="0.04"/><path d="M0 432.7H2000" stroke="#ffffff" stroke-width="3.3" stroke-opacity="0.09"/><path d="M0 1586.9H2000" stroke="#000000" stroke-width="0.8" stroke-opacity="0.05"/><path d="M0 1452.4H2000" stroke="#ffffff" stroke-width="2.8" stroke-opacity="0.15"/><path d="M0 1226H2000" stroke="#000000" stroke-width="0.8" stroke-opacity="0.1"/><path d="M0 173.9H2000" stroke="#ffffff" stroke-width="2.6" stroke-opacity="0.11"/><path d="M0 508.9H2000" stroke="#000000" stroke-width="1.5" stroke-opacity="0.05"/><path d="M0 248.1H2000" stroke="#ffffff" stroke-width="0.6" stroke-opacity="0.11"/><path d="M0 1448.4H2000" stroke="#ffffff" stroke-width="1.1" stroke-opacity="0.07"/><path d="M0 1531.5H2000" stroke="#000000" stroke-width="0.8" stroke-opacity="0.04"/><path d="M0 1929.6H2000" stroke="#ffffff" stroke-width="1.1" stroke-opacity="0.11"/><path d="M0 90.3H2000" stroke="#ffffff" stroke-width="1.9" stroke-opacity="0.09"/><path d="M0 1952.3H2000" stroke="#ffffff" stroke-width="0.8" stroke-opacity="0.09"/><path d="M0 891.2H2000" stroke="#ffffff" stroke-width="1.2" stroke-opacity="0.08"/><path d="M0 1545.4H2000" stroke="#ffffff" stroke-width="2.1" stroke-opacity="0.14"/><path d="M0 362.8H2000" stroke="#000000" stroke-width="0.9" stroke-opacity="0.03"/><path d="M0 1228.4H2000" stroke="#000000" stroke-width="1.8" stroke-opacity="0.04"/><path d="M0 583.4H2000" stroke="#ffffff" stroke-width="1.5" stroke-opacity="0.05"/><path d="M0 1297.8H2000" stroke="#ffffff" stroke-width="3.4" stroke-opacity="0.07"/><path d="M0 1139.4H2000" stroke="#000000" stroke-width="2.4" stroke-opacity="0.1"/><path d="M0 857.7H2000" stroke="#ffffff" stroke-width="1.4" stroke-opacity="0.04"/><path d="M0 1857H2000" stroke="#ffffff" stroke-width="2.1" stroke-opacity="0.15"/><path d="M0 228.9H2000" stroke="#000000" stroke-width="2.4" stroke-opacity="0.1"/><path d="M0 1254.5H2000" stroke="#ffffff" stroke-width="1.9" stroke-opacity="0.08"/><path d="M0 989.2H2000" stroke="#ffffff" stroke-width="3.4" stroke-opacity="0.12"/><path d="M0 1384.6H2000" stroke="#ffffff" stroke-width="3.2" stroke-opacity="0.14"/><path d="M0 657.2H2000" stroke="#000000" stroke-width="3.1" stroke-opacity="0.1"/><path d="M0 626.2H2000" stroke="#000000" stroke-width="3.5" stroke-opacity="0.09"/><path d="M0 386.3H2000" stroke="#000000" stroke-width="2.5" stroke-opacity="0.08"/><path d="M0 11.5H2000" stroke="#000000" stroke-width="2.9" stroke-opacity="0.04"/><path d="M0 12.6H2000" stroke="#000000" stroke-width="1.3" stroke-opacity="0.09"/><path d="M0 379H2000" stroke="#ffffff" stroke-width="0.9" stroke-opacity="0.12"/><path d="M0 1314.3H2000" stroke="#000000" stroke-width="1.8" stroke-opacity="0.07"/><path d="M0 1010.5H2000" stroke="#ffffff" stroke-width="2.3" stroke-opacity="0.08"/><path d="M0 743.1H2000" stroke="#ffffff" stroke-width="1.4" stroke-opacity="0.05"/><path d="M0 1745.8H2000" stroke="#ffffff" stroke-width="1.5" stroke-opacity="0.16"/><path d="M1923.2 915.6h56.8M1681.3 533.1h107.3M449.8 980.8h65.5M439.5 1483.7h160.6M1946.5 1017.2h86.2M929.9 194.2h198.8M508.8 846.1h202.6M1357.5 1696h109.3M951.4 502.7h235.8M1909.7 36.9h116.4M737.1 1998.7h179M1722.2 743.7h72.3M340.7 69.3h223.9M1206.1 576.1h175.2M1609.1 1842.5h64.4M274 1230.7h181.1M1999.8 298.2h259.9M1058.1 1650.6h233.8M1502 1873.3h41.6M291.3 160.1h232.2M1303.3 366.4h236.7M595.2 1270.3h135.7M1626.7 415.4h45.9M1670.7 1410.3h148.4M1740 1569h123.7M536.2 1232.6h101.1M225.9 1523.9h50.2M770.1 1097.8h211.6M1410.6 1672.9h190M599 1474.5h218.8M104.5 788.5h217.5M653 257.5h151.9M815 1264h212.7M1112.9 877.4h166.4M1569.4 1186.4h142.8M1055.2 788.3h179.9M208.5 811.6h145.9M1343 1436.2h82.2M106.4 336.8h119.6M11.1 904.3h105.7M1183 1396.7h72.3M366.3 656h172.9M1965.5 551.8h229.9M1160.5 1924.7h231.7M937.7 887h248.7M1293.3 1521.1h83.1M1611.2 980.9h201.4M490.8 1263h112.8M1815.3 1791.6h96M1239.9 197.5h102.2M1377 1502h235.7M946.8 41.2h80.6M921.2 11.2h180.5M50.2 68.3h218.2M206.8 1002.9h216.4M50.3 1664.3h121.9M1903.6 1867.3h178.2M509 65.8h228.5M1564.4 672.5h177.2M1421.1 1406h123.5M1756.9 1810.4h98.5M213.4 483.2h200M1198.7 1836.4h115.9M569.2 1725.7h164.1M1471.5 779.9h90.2M831.3 214.4h118.9M1217.9 1259.8h130.4M1100.6 155.4h50.3M1603.6 1149.8h72M1681.1 1548h141.3M949.6 833h150.7M339.1 675.7h126.3M788.4 1730.9h117.1M471.5 1340.9h175.4M319.2 1426.8h59.4M960.3 275.9h249M1923.7 1698.5h114.5M1976 326.2h199.7M1493.9 69.3h64.7M1076.6 1463.3h208.2M1013.7 603.3h200.9M504.6 759.9h149.6M328.5 1195.6h112.2M970.6 1631.5h106.5M1417.4 1099.8h187M1587.7 64.7h71.6M1616 805h125.5M15.5 1643.2h232.2M859.3 1394.9h114.3M319 1406.4h43.6M1175.8 1906.6h111.5M1184.3 198.4h171.4M1573.1 1337.4h193.6M1885.7 198.2h157.2M412.4 650.9h116.7M845.2 1403.3h147.9M1151.5 1073.2h112.6M991.2 1295.2h53M1723 1288.9h255.3M1751.4 312.2h163.3M1071.2 1256.8h90.5M882.9 786.1h130.1M835 911.2h245.2M847.8 608h146.6M1715.6 978h43.1M1383.7 365.6h104.1M1978.4 481.8h164.1M1663.7 1043.9h194.7M75.8 691.7h163.3M422.1 1896.8h259.8M1876.6 1041.5h223.9M375.1 869.3h233.2M488.2 1543.4h106.8M1097.8 1410h175.3M1563.1 1018.8h213.9M252.4 1453h160.8M907.1 1476.6h149.4M1994.9 885.9h119.3M1134 1088.7h233.6M538.9 1688.3h251.3M1629.6 530.1h111.4M115.6 1608.7h106.5M666 257.5h108.9M1505.5 326h40.2M1178.6 1223.7h233.3M1314 1250.2h202.8M917.6 232.6h157.5M980.6 1978.6h114.6M21 1773.2h128.5M1546 1037.2h103.9M172.8 1231.6h148.9M1182.3 91.5h221.4M324.4 484.6h155.3M372.5 1039.7h253.6M1597.3 1993.2h198.3M1889.3 368.4h230.2M1783.5 656.9h45.7M1126.3 1851.6h156.9M1240.6 542.9h188.6M733.1 1811.1h100.8M1099.1 1580.9h233.5M416.5 325.7h42.7M527.1 1239.9h105.4M1546.6 999.7h252.1M1368.5 1746.5h53.1M103.4 207.1h112.2M1234.7 1885.7h259.6M1504.4 1867.7h121.7M860.9 142.8h58.4M1719.1 500h224.5M680.6 170.9h153M1201.9 751.1h96.7M1665.1 1170h242.6M1303.7 1069.4h239.6M59 457.1h46.8M333.7 66.4h131.4M438 1412.7h79.1M1613.7 895.4h124.1M1360 1576.7h64.2M425.1 1859.9h144.7" stroke="#ffffff" stroke-opacity=".12" stroke-width="1"/></g></defs><rect width="2000" height="2000" fill="url(#metal-gold-g)"/><use href="#metal-gold-t" x="-2000" y="-2000"/><use href="#metal-gold-t" x="0" y="-2000"/><use href="#metal-gold-t" x="2000" y="-2000"/><use href="#metal-gold-t" x="-2000" y="0"/><use href="#metal-gold-t" x="0" y="0"/><use href="#metal-gold-t" x="2000" y="0"/><use href="#metal-gold-t" x="-2000" y="2000"/><use href="#metal-gold-t" x="0" y="2000"/><use href="#metal-gold-t" x="2000" y="2000"/></svg>
