<svg xmlns="http://www.w3.org/2000/svg" width="72.99" height="85" viewBox="0 0 72.99 85" fill="none">
<rect x="0.5" y="0.5" width="71.99" height="84" rx="1.18" fill="#ffffff" stroke="#212121" stroke-width="1" stroke-linejoin="round"/>
<rect x="1.88" y="3.45" width="69.24" height="79.87" rx="1.77" fill="#ffffff" stroke="#212121" stroke-width="0.5" stroke-linejoin="round"/>
<rect x="0.5" y="0.5" width="71.99" height="2.95" rx="0.98" fill="#ffffff" stroke="#212121" stroke-width="1" stroke-linejoin="round"/>
<line x1="2.07" y1="1.98" x2="70.92" y2="1.98" fill="none" stroke="#212121" stroke-width="0.5" stroke-linejoin="round"/>
<rect x="6.06" y="5.62" width="28.35" height="16.93" rx="4.33" fill="#ffffff" stroke="#212121" stroke-width="0.5" stroke-linejoin="round"/>
<rect x="7.83" y="7.39" width="24.8" height="13.39" rx="3.15" fill="none" stroke="#212121" stroke-width="0.5" stroke-linejoin="round"/>
<rect x="38.59" y="5.62" width="28.35" height="16.93" rx="4.33" fill="#ffffff" stroke="#212121" stroke-width="0.5" stroke-linejoin="round"/>
<rect x="40.36" y="7.39" width="24.8" height="13.39" rx="3.15" fill="none" stroke="#212121" stroke-width="0.5" stroke-linejoin="round"/>
<polygon points="1.17,27.67 56.86,27.67 71.82,42.63 71.82,83.79 1.17,83.79" fill="#ffffff" stroke="#212121" stroke-width="0.5" stroke-linejoin="round"/>
<line x1="1.17" y1="38.69" x2="56.86" y2="38.69" fill="none" stroke="#212121" stroke-width="0.5" stroke-linejoin="round"/>
<polygon points="56.86,27.67 71.82,42.63 56.86,42.63" fill="#e9e9e9" stroke="#212121" stroke-width="0.5" stroke-linejoin="round"/>
</svg>
