<svg xmlns="http://www.w3.org/2000/svg" width="97.99" height="29.02" viewBox="0 0 97.99 29.02" fill="none" stroke-linejoin="round" stroke-linecap="round">
  <rect x="0.5" y="0.5" width="96.99" height="28.02" rx="0.98" fill="#ffffff" stroke="#212121" stroke-width="1"/>
  <line x1="1.37" y1="1.37" x2="96.63" y2="1.37" stroke="#212121" stroke-width="0.5" stroke-opacity="0.45"/>
  <line x1="1.68" y1="27.41" x2="96.31" y2="27.41" stroke="#212121" stroke-width="0.5" stroke-opacity="0.45"/>
  <rect x="26.56" y="2.39" width="44.88" height="23.69" rx="2.36" fill="#e9e9e9" stroke="#212121" stroke-width="0.5"/>
  <rect x="26.56" y="2.39" width="44.88" height="23.69" rx="2.36" stroke="#212121" stroke-width="1"/>
  <rect x="27.74" y="5.46" width="11.5" height="19.35" rx="2.95" fill="#d6d6d6" stroke="#212121" stroke-width="0.5"/>
  <rect x="28.6" y="6.33" width="9.76" height="17.62" rx="2.36" stroke="#212121" stroke-width="0.5" stroke-opacity="0.3"/>
  <circle cx="33.48" cy="16.11" r="0.94" fill="#ffffff" stroke="#212121" stroke-width="0.5"/>
  <circle cx="33.48" cy="16.11" r="0.57" stroke="#212121" stroke-width="0.5" stroke-opacity="0.6"/>
  <circle cx="33.48" cy="16.11" r="0.21" fill="#212121"/>
  <rect x="41.2" y="8.17" width="11.5" height="16.64" rx="2.95" fill="#d6d6d6" stroke="#212121" stroke-width="0.5"/>
  <rect x="42.07" y="9.04" width="9.76" height="14.91" rx="2.36" stroke="#212121" stroke-width="0.5" stroke-opacity="0.3"/>
  <circle cx="46.95" cy="17.46" r="0.94" fill="#ffffff" stroke="#212121" stroke-width="0.5"/>
  <circle cx="46.95" cy="17.46" r="0.57" stroke="#212121" stroke-width="0.5" stroke-opacity="0.6"/>
  <circle cx="46.95" cy="17.46" r="0.21" fill="#212121"/>
  <rect x="55.06" y="5.74" width="0.63" height="17.78" rx="0.31" stroke="#212121" stroke-width="0.5" stroke-opacity="0.6"/>
  <rect x="56.71" y="5.74" width="0.63" height="17.78" rx="0.31" stroke="#212121" stroke-width="0.5" stroke-opacity="0.6"/>
  <rect x="58.37" y="5.74" width="0.63" height="17.78" rx="0.31" stroke="#212121" stroke-width="0.5" stroke-opacity="0.6"/>
  <rect x="60.02" y="5.74" width="0.63" height="17.78" rx="0.31" stroke="#212121" stroke-width="0.5" stroke-opacity="0.6"/>
  <rect x="61.67" y="5.74" width="0.63" height="17.78" rx="0.31" stroke="#212121" stroke-width="0.5" stroke-opacity="0.6"/>
  <rect x="63.33" y="5.74" width="0.63" height="17.78" rx="0.31" stroke="#212121" stroke-width="0.5" stroke-opacity="0.6"/>
  <rect x="64.98" y="5.74" width="0.63" height="17.78" rx="0.31" stroke="#212121" stroke-width="0.5" stroke-opacity="0.6"/>
  <rect x="66.63" y="5.74" width="0.63" height="17.78" rx="0.31" stroke="#212121" stroke-width="0.5" stroke-opacity="0.6"/>
  <rect x="68.29" y="5.74" width="0.63" height="17.78" rx="0.31" stroke="#212121" stroke-width="0.5" stroke-opacity="0.6"/>
  <path d="M33.48 3.73 Q36.16 6.74 34.29 10.42" stroke="#212121" stroke-width="0.95"/>
  <path d="M33.48 3.73 Q36.16 6.74 34.29 10.42" stroke="#e9e9e9" stroke-width="0.5"/>
  <circle cx="34.29" cy="10.42" r="0.43" fill="#e9e9e9" stroke="#212121" stroke-width="0.5"/>
  <circle cx="33.48" cy="3.73" r="0.87" fill="#e9e9e9" stroke="#212121" stroke-width="0.5"/>
  <circle cx="33.48" cy="3.73" r="0.39" stroke="#212121" stroke-width="0.5" stroke-opacity="0.6"/>
  <path d="M34 3.21 Q34.87 2.78 35.56 2.95" stroke="#212121" stroke-width="1"/>
  <line x1="25.37" y1="1.37" x2="25.37" y2="27.41" stroke="#212121" stroke-width="0.5" stroke-opacity="0.3"/>
  <line x1="72.62" y1="1.37" x2="72.62" y2="27.41" stroke="#212121" stroke-width="0.5" stroke-opacity="0.3"/>
</svg>
