<svg xmlns="http://www.w3.org/2000/svg" width="48.82" height="58.62" viewBox="0 0 48.82 58.62" fill="none">
<path d="M46.82 28.07Q49.35 35.22 45.85 40.95Q45.14 45.1 41.05 46.66Q39.83 51.56 35.9 52.49Q31.38 58.79 24.97 56.73Q22.63 58.91 20.52 57.67Q13.89 57.88 10.34 49.97Q7.95 48.99 7.49 45.77Q1.9 41.75 2.01 34.65Q-1.07 27.79 2.14 21.33Q1.9 17.28 4.83 14.91Q5.37 9.44 9.35 7.51Q12.91 0.99 19.57 1.95Q23.53 -1.05 27.74 2.15Q31.21 0.86 33.67 4.03Q39.28 3.9 41.7 9.35Q47.16 12.31 47.64 19.06Q49.33 23.02 46.82 28.07Z" fill="#ffffff" stroke="#212121" stroke-width="1" stroke-linejoin="round" stroke-linecap="round"/>
<path d="M21.27 37.65q-0.23 -0.84 -1.07 -0.62" fill="none" stroke="#212121" stroke-width="0.5" stroke-linejoin="round" stroke-linecap="round"/>
<path d="M37.13 49.29q0.21 -1.23 -1.02 -1.43" fill="none" stroke="#212121" stroke-width="0.5" stroke-linejoin="round" stroke-linecap="round"/>
<path d="M16.47 16.8q1.29 0.56 1.85 -0.74" fill="none" stroke="#212121" stroke-width="0.5" stroke-linejoin="round" stroke-linecap="round"/>
<path d="M20.58 39.87q-0.75 0.96 0.21 1.71" fill="none" stroke="#212121" stroke-width="0.5" stroke-linejoin="round" stroke-linecap="round"/>
<path d="M12.77 18.27q-0.9 0.8 -0.11 1.7" fill="none" stroke="#212121" stroke-width="0.5" stroke-linejoin="round" stroke-linecap="round"/>
<path d="M37.49 17.04q-0.94 0.85 -0.09 1.79" fill="none" stroke="#212121" stroke-width="0.5" stroke-linejoin="round" stroke-linecap="round"/>
<path d="M44.59 23.09q-0.16 0.81 0.65 0.97" fill="none" stroke="#212121" stroke-width="0.5" stroke-linejoin="round" stroke-linecap="round"/>
<path d="M25.61 39.69q0.76 -0.93 -0.17 -1.69" fill="none" stroke="#212121" stroke-width="0.5" stroke-linejoin="round" stroke-linecap="round"/>
<path d="M34.21 11.35q0.97 0.77 1.75 -0.2" fill="none" stroke="#212121" stroke-width="0.5" stroke-linejoin="round" stroke-linecap="round"/>
<path d="M17.21 45.34q-1.07 0.53 -0.54 1.6" fill="none" stroke="#212121" stroke-width="0.5" stroke-linejoin="round" stroke-linecap="round"/>
<path d="M5.12 31.1q-0.53 -1.34 -1.86 -0.81" fill="none" stroke="#212121" stroke-width="0.5" stroke-linejoin="round" stroke-linecap="round"/>
<path d="M33.21 44.63q0.88 -0.57 0.31 -1.45" fill="none" stroke="#212121" stroke-width="0.5" stroke-linejoin="round" stroke-linecap="round"/>
<path d="M30.64 34.38q0.11 1.27 1.38 1.15" fill="none" stroke="#212121" stroke-width="0.5" stroke-linejoin="round" stroke-linecap="round"/>
<path d="M41.8 23.14q-0.81 1.06 0.25 1.87" fill="none" stroke="#212121" stroke-width="0.5" stroke-linejoin="round" stroke-linecap="round"/>
<path d="M14.91 49.47q1.3 -0.32 0.99 -1.62" fill="none" stroke="#212121" stroke-width="0.5" stroke-linejoin="round" stroke-linecap="round"/>
<path d="M26.69 31.18q0.97 -0.35 0.62 -1.31" fill="none" stroke="#212121" stroke-width="0.5" stroke-linejoin="round" stroke-linecap="round"/>
<path d="M35.4 17.81q1.22 -0.46 0.76 -1.68" fill="none" stroke="#212121" stroke-width="0.5" stroke-linejoin="round" stroke-linecap="round"/>
<path d="M8.42 38.11q-0.99 -0.76 -1.75 0.23" fill="none" stroke="#212121" stroke-width="0.5" stroke-linejoin="round" stroke-linecap="round"/>
<path d="M16.19 51.41q-0.89 0.25 -0.64 1.14" fill="none" stroke="#212121" stroke-width="0.5" stroke-linejoin="round" stroke-linecap="round"/>
<path d="M31.18 33.33q1.25 -0.27 0.98 -1.52" fill="none" stroke="#212121" stroke-width="0.5" stroke-linejoin="round" stroke-linecap="round"/>
<circle cx="14.91" cy="17.59" r="6.16" fill="#ffffff" stroke="#212121" stroke-width="0.5" stroke-linejoin="round" stroke-linecap="round"/>
<circle cx="14.91" cy="17.59" r="0.9" fill="#ffffff" stroke="#212121" stroke-width="0.5" stroke-linejoin="round" stroke-linecap="round"/>
<circle cx="17.97" cy="19.67" r="1.1" fill="#ffffff" stroke="#212121" stroke-width="0.5" stroke-linejoin="round" stroke-linecap="round"/>
<circle cx="14.31" cy="21.24" r="1.1" fill="#ffffff" stroke="#212121" stroke-width="0.5" stroke-linejoin="round" stroke-linecap="round"/>
<circle cx="12.68" cy="20.54" r="1.1" fill="#ffffff" stroke="#212121" stroke-width="0.5" stroke-linejoin="round" stroke-linecap="round"/>
<circle cx="12.13" cy="15.15" r="1.1" fill="#ffffff" stroke="#212121" stroke-width="0.5" stroke-linejoin="round" stroke-linecap="round"/>
<circle cx="13.62" cy="14.13" r="1.1" fill="#ffffff" stroke="#212121" stroke-width="0.5" stroke-linejoin="round" stroke-linecap="round"/>
<circle cx="17.01" cy="14.54" r="1.1" fill="#ffffff" stroke="#212121" stroke-width="0.5" stroke-linejoin="round" stroke-linecap="round"/>
<circle cx="33.57" cy="16.34" r="5.68" fill="#ffffff" stroke="#212121" stroke-width="0.5" stroke-linejoin="round" stroke-linecap="round"/>
<circle cx="33.57" cy="16.34" r="0.9" fill="#ffffff" stroke="#212121" stroke-width="0.5" stroke-linejoin="round" stroke-linecap="round"/>
<circle cx="36.73" cy="17.61" r="1.1" fill="#ffffff" stroke="#212121" stroke-width="0.5" stroke-linejoin="round" stroke-linecap="round"/>
<circle cx="34.65" cy="19.58" r="1.1" fill="#ffffff" stroke="#212121" stroke-width="0.5" stroke-linejoin="round" stroke-linecap="round"/>
<circle cx="31.42" cy="18.99" r="1.1" fill="#ffffff" stroke="#212121" stroke-width="0.5" stroke-linejoin="round" stroke-linecap="round"/>
<circle cx="30.19" cy="15.94" r="1.1" fill="#ffffff" stroke="#212121" stroke-width="0.5" stroke-linejoin="round" stroke-linecap="round"/>
<circle cx="33.99" cy="12.96" r="1.1" fill="#ffffff" stroke="#212121" stroke-width="0.5" stroke-linejoin="round" stroke-linecap="round"/>
<circle cx="36.84" cy="15.37" r="1.1" fill="#ffffff" stroke="#212121" stroke-width="0.5" stroke-linejoin="round" stroke-linecap="round"/>
<circle cx="25.22" cy="30.03" r="5.37" fill="#ffffff" stroke="#212121" stroke-width="0.5" stroke-linejoin="round" stroke-linecap="round"/>
<circle cx="25.22" cy="30.03" r="0.9" fill="#ffffff" stroke="#212121" stroke-width="0.5" stroke-linejoin="round" stroke-linecap="round"/>
<circle cx="28.45" cy="30.16" r="1.1" fill="#ffffff" stroke="#212121" stroke-width="0.5" stroke-linejoin="round" stroke-linecap="round"/>
<circle cx="26.03" cy="33.16" r="1.1" fill="#ffffff" stroke="#212121" stroke-width="0.5" stroke-linejoin="round" stroke-linecap="round"/>
<circle cx="22.02" cy="30.4" r="1.1" fill="#ffffff" stroke="#212121" stroke-width="0.5" stroke-linejoin="round" stroke-linecap="round"/>
<circle cx="22.28" cy="28.71" r="1.1" fill="#ffffff" stroke="#212121" stroke-width="0.5" stroke-linejoin="round" stroke-linecap="round"/>
<circle cx="26.34" cy="27.01" r="1.1" fill="#ffffff" stroke="#212121" stroke-width="0.5" stroke-linejoin="round" stroke-linecap="round"/>
<circle cx="26.89" cy="27.27" r="1.1" fill="#ffffff" stroke="#212121" stroke-width="0.5" stroke-linejoin="round" stroke-linecap="round"/>
<circle cx="14.42" cy="41.86" r="6.36" fill="#ffffff" stroke="#212121" stroke-width="0.5" stroke-linejoin="round" stroke-linecap="round"/>
<circle cx="14.42" cy="41.86" r="0.9" fill="#ffffff" stroke="#212121" stroke-width="0.5" stroke-linejoin="round" stroke-linecap="round"/>
<circle cx="16.77" cy="44.86" r="1.1" fill="#ffffff" stroke="#212121" stroke-width="0.5" stroke-linejoin="round" stroke-linecap="round"/>
<circle cx="12.91" cy="45.36" r="1.1" fill="#ffffff" stroke="#212121" stroke-width="0.5" stroke-linejoin="round" stroke-linecap="round"/>
<circle cx="11.79" cy="44.62" r="1.1" fill="#ffffff" stroke="#212121" stroke-width="0.5" stroke-linejoin="round" stroke-linecap="round"/>
<circle cx="10.92" cy="40.34" r="1.1" fill="#ffffff" stroke="#212121" stroke-width="0.5" stroke-linejoin="round" stroke-linecap="round"/>
<circle cx="14.25" cy="38.04" r="1.1" fill="#ffffff" stroke="#212121" stroke-width="0.5" stroke-linejoin="round" stroke-linecap="round"/>
<circle cx="18.16" cy="41.05" r="1.1" fill="#ffffff" stroke="#212121" stroke-width="0.5" stroke-linejoin="round" stroke-linecap="round"/>
<circle cx="34.55" cy="40.61" r="6.1" fill="#ffffff" stroke="#212121" stroke-width="0.5" stroke-linejoin="round" stroke-linecap="round"/>
<circle cx="34.55" cy="40.61" r="0.9" fill="#ffffff" stroke="#212121" stroke-width="0.5" stroke-linejoin="round" stroke-linecap="round"/>
<circle cx="37.26" cy="43.08" r="1.1" fill="#ffffff" stroke="#212121" stroke-width="0.5" stroke-linejoin="round" stroke-linecap="round"/>
<circle cx="35.98" cy="43.99" r="1.1" fill="#ffffff" stroke="#212121" stroke-width="0.5" stroke-linejoin="round" stroke-linecap="round"/>
<circle cx="32.09" cy="43.32" r="1.1" fill="#ffffff" stroke="#212121" stroke-width="0.5" stroke-linejoin="round" stroke-linecap="round"/>
<circle cx="30.89" cy="40.46" r="1.1" fill="#ffffff" stroke="#212121" stroke-width="0.5" stroke-linejoin="round" stroke-linecap="round"/>
<circle cx="32.92" cy="37.33" r="1.1" fill="#ffffff" stroke="#212121" stroke-width="0.5" stroke-linejoin="round" stroke-linecap="round"/>
<circle cx="37.53" cy="38.47" r="1.1" fill="#ffffff" stroke="#212121" stroke-width="0.5" stroke-linejoin="round" stroke-linecap="round"/>
<circle cx="25.22" cy="8.26" r="5.45" fill="#ffffff" stroke="#212121" stroke-width="0.5" stroke-linejoin="round" stroke-linecap="round"/>
<circle cx="25.22" cy="8.26" r="0.9" fill="#ffffff" stroke="#212121" stroke-width="0.5" stroke-linejoin="round" stroke-linecap="round"/>
<circle cx="27.77" cy="10.31" r="1.1" fill="#ffffff" stroke="#212121" stroke-width="0.5" stroke-linejoin="round" stroke-linecap="round"/>
<circle cx="24.8" cy="11.5" r="1.1" fill="#ffffff" stroke="#212121" stroke-width="0.5" stroke-linejoin="round" stroke-linecap="round"/>
<circle cx="23.46" cy="11.01" r="1.1" fill="#ffffff" stroke="#212121" stroke-width="0.5" stroke-linejoin="round" stroke-linecap="round"/>
<circle cx="22.19" cy="7.04" r="1.1" fill="#ffffff" stroke="#212121" stroke-width="0.5" stroke-linejoin="round" stroke-linecap="round"/>
<circle cx="24.37" cy="5.1" r="1.1" fill="#ffffff" stroke="#212121" stroke-width="0.5" stroke-linejoin="round" stroke-linecap="round"/>
<circle cx="28.31" cy="7.18" r="1.1" fill="#ffffff" stroke="#212121" stroke-width="0.5" stroke-linejoin="round" stroke-linecap="round"/>
<circle cx="24.24" cy="51.19" r="5.55" fill="#ffffff" stroke="#212121" stroke-width="0.5" stroke-linejoin="round" stroke-linecap="round"/>
<circle cx="24.24" cy="51.19" r="0.9" fill="#ffffff" stroke="#212121" stroke-width="0.5" stroke-linejoin="round" stroke-linecap="round"/>
<circle cx="27.39" cy="52.27" r="1.1" fill="#ffffff" stroke="#212121" stroke-width="0.5" stroke-linejoin="round" stroke-linecap="round"/>
<circle cx="23.89" cy="54.5" r="1.1" fill="#ffffff" stroke="#212121" stroke-width="0.5" stroke-linejoin="round" stroke-linecap="round"/>
<circle cx="21.55" cy="53.15" r="1.1" fill="#ffffff" stroke="#212121" stroke-width="0.5" stroke-linejoin="round" stroke-linecap="round"/>
<circle cx="21.59" cy="49.18" r="1.1" fill="#ffffff" stroke="#212121" stroke-width="0.5" stroke-linejoin="round" stroke-linecap="round"/>
<circle cx="24.1" cy="47.86" r="1.1" fill="#ffffff" stroke="#212121" stroke-width="0.5" stroke-linejoin="round" stroke-linecap="round"/>
<circle cx="27.42" cy="50.18" r="1.1" fill="#ffffff" stroke="#212121" stroke-width="0.5" stroke-linejoin="round" stroke-linecap="round"/>
</svg>
