<svg xmlns="http://www.w3.org/2000/svg" width="60.98" height="35" viewBox="0 0 60.98 35" fill="none" stroke-linejoin="round" stroke-linecap="round">
  <rect x="0.5" y="0.5" width="29.4" height="30.17" rx="1.77" fill="#ffffff" stroke="#212121" stroke-width="1"/>
  <rect x="1.37" y="1.29" width="27.67" height="3.74" rx="1.38" fill="#e9e9e9" stroke="#212121" stroke-width="0.5"/>
  <rect x="2.27" y="2" width="6.3" height="2.36" rx="0.87" fill="#ffffff" stroke="#212121" stroke-width="0.5"/>
  <line x1="4.36" y1="2.31" x2="4.36" y2="4.04" stroke="#212121" stroke-width="0.5" stroke-opacity="0.3"/>
  <line x1="6.48" y1="2.31" x2="6.48" y2="4.04" stroke="#212121" stroke-width="0.5" stroke-opacity="0.3"/>
  <circle cx="23.41" cy="3.18" r="0.39" fill="#ffffff" stroke="#212121" stroke-width="0.5"/>
  <circle cx="24.59" cy="3.18" r="0.39" fill="#ffffff" stroke="#212121" stroke-width="0.5"/>
  <circle cx="26.67" cy="3.18" r="1.18" fill="#ffffff" stroke="#212121" stroke-width="0.5"/>
  <line x1="26.67" y1="3.18" x2="26.67" y2="2.29" stroke="#212121" stroke-width="0.5"/>
  <circle cx="15.2" cy="18.14" r="10.36" stroke="#212121" stroke-width="0.5" stroke-opacity="0.55"/>
  <circle cx="15.2" cy="18.14" r="7.46" stroke="#212121" stroke-width="0.5" stroke-dasharray="3 2" stroke-opacity="0.3"/>
  <rect x="5.36" y="30.2" width="19.69" height="3.62" rx="1.81" fill="#ffffff" stroke="#212121" stroke-width="1"/>
  <rect x="6.74" y="30.98" width="16.93" height="1.97" rx="0.98" fill="#e9e9e9" stroke="#212121" stroke-width="0.5"/>
  <rect x="22.29" y="33.35" width="1.97" height="0.79" rx="0.39" fill="#d6d6d6" stroke="#212121" stroke-width="0.5"/>
  <rect x="31.08" y="0.5" width="29.4" height="30.17" rx="1.77" fill="#ffffff" stroke="#212121" stroke-width="1"/>
  <rect x="31.95" y="1.29" width="27.67" height="3.74" rx="1.38" fill="#e9e9e9" stroke="#212121" stroke-width="0.5"/>
  <rect x="32.85" y="2.27" width="4.72" height="1.81" rx="0.71" fill="#ffffff" stroke="#212121" stroke-width="0.5"/>
  <circle cx="53.99" cy="3.18" r="0.39" fill="#ffffff" stroke="#212121" stroke-width="0.5"/>
  <circle cx="55.17" cy="3.18" r="0.39" fill="#ffffff" stroke="#212121" stroke-width="0.5"/>
  <circle cx="57.26" cy="3.18" r="1.18" fill="#ffffff" stroke="#212121" stroke-width="0.5"/>
  <line x1="57.26" y1="3.18" x2="57.26" y2="2.29" stroke="#212121" stroke-width="0.5"/>
  <circle cx="45.78" cy="18.14" r="10.36" stroke="#212121" stroke-width="0.5" stroke-opacity="0.55"/>
  <circle cx="45.78" cy="18.14" r="7.46" stroke="#212121" stroke-width="0.5" stroke-dasharray="3 2" stroke-opacity="0.3"/>
  <rect x="35.94" y="30.2" width="19.69" height="3.62" rx="1.81" fill="#ffffff" stroke="#212121" stroke-width="1"/>
  <rect x="37.32" y="30.98" width="16.93" height="1.97" rx="0.98" fill="#e9e9e9" stroke="#212121" stroke-width="0.5"/>
  <rect x="52.87" y="33.35" width="1.97" height="0.79" rx="0.39" fill="#d6d6d6" stroke="#212121" stroke-width="0.5"/>
</svg>
